<svg xmlns="http://www.w3.org/2000/svg" viewBox="0 0 32 32">
  <!-- Vocaris — Sprechblase mit Stimme. Hintergrund gefüllt, weil das
       Zeichen im Browser-Reiter sonst auf dunklen Themen verschwindet. -->
  <defs><linearGradient id="v" x1="0" y1="0" x2="1" y2="1">
    <stop offset="0" stop-color="#12A0B8"/><stop offset="1" stop-color="#0A6A8C"/>
  </linearGradient></defs>
  <rect width="32" height="32" rx="7" fill="url(#v)"/>
  <path d="M16 5.5c-5.4 0-9.8 3.9-9.8 8.75 0 2.73 1.4 5.18 3.64 6.79v3.57c0 .42.49.7.84.42l3.5-2.52c.56.07 1.19.14 1.82.14 5.4 0 9.8-3.92 9.8-8.75S21.4 5.5 16 5.5z" fill="#fff"/>
  <g fill="#0A5B70">
    <rect x="10.5" y="12.6" width="1.9" height="3.5" rx=".95"/>
    <rect x="13.6" y="10.4" width="1.9" height="8"   rx=".95"/>
    <rect x="16.7" y="11.6" width="1.9" height="5.5" rx=".95"/>
    <rect x="19.8" y="13"   width="1.9" height="2.7" rx=".95"/>
  </g>
</svg>
